<?xml version="1.0" encoding="UTF-8"?><svg id="Capa_1" xmlns="http://www.w3.org/2000/svg" viewBox="0 0 1878 272"><path d="M1865,0l-117.93,129.37,130.93,142.63h-107.5l-83-89.98-84,89.98h-107.5l131.05-142.55L1509,0h107.5l71,75.98L1757.5,0h107.5ZM1607.5,21h-50.5l98.89,108.35-110.89,121.65h49.5l92.01-100.01,92.99,100.01h50.5l-111.93-121.64,98.93-108.36h-50.5l-79.99,86.01-79.01-86.01Z"/><path d="M0,52c36.23,1.16,73.41-1.54,109.54-.04,21.27.88,49.47,2.95,56.96,27.04,5.08,16.35,2.89,35.32-11.5,45.99,25.39,8.3,29.87,51.22,10.47,66.99-5.53,4.49-20.07,10.02-26.98,10.02H0V52ZM118.5,86H37v23h85.5c2.93,0,7.76-5.5,8.29-8.76,1.42-8.69-4.3-13.28-12.29-14.24ZM37,168h93.5c1.07,0,7.4-4.63,7.98-6.02,3.15-7.55-1.99-19.98-10.98-19.98H37v26Z"/><path d="M575,202V52c36.19,1.23,73.46-1.63,109.54-.04,21.38.94,49.33,3.16,56.74,27.26,4.68,15.24,3.12,35.91-11.26,45.28,28.33,12.88,31.13,60.55.97,72.99-2.89,1.19-14.89,4.51-17.49,4.51h-138.5ZM612,109h85.5c.64,0,5.25-3.06,5.98-4.02,3.7-4.85,2.72-13.15-2.52-16.44-1.36-.85-7.22-2.54-8.46-2.54h-80.5v23ZM612,168h92.5c.35,0,4.79-2.06,5.46-2.54,5.7-4.09,5.56-14.88.56-19.48-.89-.82-7.3-3.98-8.02-3.98h-90.5v26Z"/><polygon points="356 52 356 86 229 86 229 109 339 109 339 142 229 142 229 168 358 168 358 202 192 202 192 52 356 52"/><polygon points="1521 52 1521 86 1394.5 86 1393 87.5 1393 109 1503 109 1503 142 1394.5 142 1393 143.5 1393 168 1522 168 1522 202 1357 202 1357 52 1521 52"/><path d="M1165,202V52c34.79,1.34,70.9-1.77,105.54-.04,53.83,2.69,75.39,35.26,70.44,87.52-3,31.72-24.86,62.52-59.48,62.52h-116.5ZM1201,168h69.5c12.85,0,27.13-13.35,30.78-25.22,8.12-26.42-3.77-56.78-34.78-56.78h-64l-1.5,1.5v80.5Z"/><path d="M1153,202h-134l19.5-34h52.5l-43.98-75.99-62.02,109.99h-42l84.11-148.39c.69-1.59,1.89-1.5,3.33-1.67,7.24-.84,27.91-.87,35.11,0,1.1.13,2.19,0,2.96,1.04l84.49,149.01Z"/><polygon points="416.5 52 466.49 113.01 515.5 52 564 52 487 145.5 487 202 445 202 445 145.5 368 52 416.5 52"/><polygon points="804 52 804 168 933 168 933 202 767 202 767 52 804 52"/><polygon points="1300 225 1300 233 1281 233 1281 254 1303 254 1303 261 1251 261 1251 254 1273 254 1273 233 1254 233 1254 225 1300 225"/><path d="M1481,225c-.77,8.06-3.8,15.45-7.83,22.33l9.83,13.66c-2.89-.3-6.55.59-9.29-.2-3.15-.92-4.75-6.83-7.18-6.84-10.23,6.8-22.55,7.65-34.53,8.05v-7.01c16.87-.23,34.03-3.45,39-22h-37v-8h47Z"/><path d="M1423,225c-3.73,25.84-18.32,36.29-43.5,38.01-2.97.2-1-4.8-1.54-6.35.35-1.53,10.47-2.2,13.25-2.95,10.42-2.84,18.4-10.56,21.79-20.71h-30.5c-4.2,7.24-4.75,10.54-14.5,8.99l9-16.99h46Z"/><path d="M1043,225l-2-3.99c1.87.3,5.34-.64,6.8.2.79.46,5.57,10.19,6.21,11.78-4.97-.51-3.9,3.98-5.5,7.01-8.85,16.78-22.32,21.26-40.5,22.99.43-2.25-1.28-6.24,1.2-7.31,3.22-1.39,10.23-1.49,14.77-3.21,9.36-3.56,15.31-10.34,19.02-19.48h-40v-8h40Z"/><path d="M1081,224v29.5c1.27,1.9,3.43,1.63,5.46,1.52,7.71-.41,18.15-2.56,23.58-8.47,4.8-5.22,2.64-10.5,12.95-8.54-1.37,9.8-9.78,18.35-19.05,21.45-1.87.63-9.04,2.55-10.45,2.55h-20.5v-38h8Z"/><polygon points="963 243 940.51 252.01 940.99 243.49 991.51 222.01 991.83 230.84 972 239.5 972 262 963 262 963 243"/><path d="M1193,224h8.01s.97,11.52.97,11.52l35.92,9.58c-.28,1.88,1.51,8.27-1.37,7.89l-35.53-9.99v19h-8v-38Z"/><path d="M909,233c2.22-5.49,4.62-13.98,12-11.99-.74,1.84-5.45,11.35-6.2,11.78-1.35.78-4.13-.04-5.8.21.23.27.24,1.61.97,2.49,7.37,8.81,14.89,17.51,22.03,26.5l-10.55-.94-24.02-28.01c-9.49,6.66-12.34,22.4-26.43,18.95l19.99-24.5,12.3-.51c1.2,2.79,4.22,4.25,5.71,6.02Z"/><path d="M1338.84,234.16l6.66,11.82,6.46-11.52,7.05-.45c-2.13,21.07-21.93,29.07-41.01,28l.11-5.9c9.05-1.56,18.96-1.77,25.88-8.61-1.93-1.24-4.87.28-6.99-1-.56-.34-6.61-10.06-7-11.01-1.09-2.69,7.41-1.27,8.83-1.32Z"/><rect x="1133" y="238" width="48" height="8"/><path d="M1332,246.99c-2.24-.41-7.15.76-8.8-.2-1.17-.68-5.45-10.9-7.2-12.78,11.12-2.52,11.33,5.48,16,12.98Z"/><path d="M1058.8,221.21c.76.44,5.45,9.93,6.2,11.78-8.73,1.92-8.59-6.51-12.99-11.5,1.32-.77,5.73-.9,6.79-.28Z"/><path d="M932,221.01c-2.63,5.39-4.41,14.04-11.99,11.99,2.21-5.49,4.62-13.98,11.99-11.99Z"/><path d="M1226,221.01c-1.07,1.54-5.59,11.47-6.16,11.83-1.24.78-5.07-.17-6.84.15,3.94-5.28,4.43-13.91,13-11.98Z"/><path d="M1237,221.01c-1.07,1.54-5.59,11.47-6.16,11.83-1.24.78-5.07-.16-6.84.15,4.16-5.06,4.56-13.95,13-11.98Z"/></svg>